name p3_grf_mean_speed_1.6
datacolumns 13
datarows 40
range 0.0000000000 0.3900000000
endheader
time	grf_x_l_mean	grf_x_l_var	grf_y_l_mean	grf_y_l_var	grf_z_l_mean	grf_z_l_var	grf_x_r_mean	grf_x_r_var	grf_y_r_mean	grf_y_r_var	grf_z_r_mean	grf_z_r_var
0.0000000000	222.9771354562	1.0000000000	987.1371426091	1.0000000000	0.0000000000	0.0000000000	12.6209527859	1.0000000000	11.4606209921	1.0000000000	0.0000000000	0.0000000000
0.0100000000	234.7691181704	1.0000000000	943.5330958081	1.0000000000	0.0000000000	0.0000000000	15.2166701593	1.0000000000	59.1559456213	1.0000000000	0.0000000000	0.0000000000
0.0200000000	242.1301579941	1.0000000000	881.0642657551	1.0000000000	0.0000000000	0.0000000000	12.1531468904	1.0000000000	137.1563379974	1.0000000000	0.0000000000	0.0000000000
0.0300000000	243.1504974900	1.0000000000	799.9216526082	1.0000000000	0.0000000000	0.0000000000	-3.1143850504	1.0000000000	241.0575018634	1.0000000000	0.0000000000	0.0000000000
0.0400000000	235.0223310755	1.0000000000	701.3958900217	1.0000000000	0.0000000000	0.0000000000	-34.0017477321	1.0000000000	359.7920065221	1.0000000000	0.0000000000	0.0000000000
0.0500000000	216.1807174115	1.0000000000	589.4123318932	1.0000000000	0.0000000000	0.0000000000	-73.6852335657	1.0000000000	483.5145824273	1.0000000000	0.0000000000	0.0000000000
0.0600000000	188.5539425836	1.0000000000	471.5153965005	1.0000000000	0.0000000000	0.0000000000	-112.3387722102	1.0000000000	603.1997871625	1.0000000000	0.0000000000	0.0000000000
0.0700000000	154.4116035814	1.0000000000	356.1272788156	1.0000000000	0.0000000000	0.0000000000	-145.7087182694	1.0000000000	709.5388084700	1.0000000000	0.0000000000	0.0000000000
0.0800000000	117.4979686654	1.0000000000	250.6523530234	1.0000000000	0.0000000000	0.0000000000	-172.3287898914	1.0000000000	797.5705851504	1.0000000000	0.0000000000	0.0000000000
0.0900000000	83.4074891166	1.0000000000	161.6033307508	1.0000000000	0.0000000000	0.0000000000	-190.0855859473	1.0000000000	868.2939107369	1.0000000000	0.0000000000	0.0000000000
0.1000000000	55.0228066435	1.0000000000	93.0409025084	1.0000000000	0.0000000000	0.0000000000	-199.6897125707	1.0000000000	925.4137635105	1.0000000000	0.0000000000	0.0000000000
0.1100000000	32.2738505595	1.0000000000	44.8412614662	1.0000000000	0.0000000000	0.0000000000	-203.2867799217	1.0000000000	971.0471901345	1.0000000000	0.0000000000	0.0000000000
0.1200000000	16.2501693620	1.0000000000	14.3982561135	1.0000000000	0.0000000000	0.0000000000	-200.6580280209	1.0000000000	1005.4265428571	1.0000000000	0.0000000000	0.0000000000
0.1300000000	0.0000000000	1.0000000000	0.0000000000	1.0000000000	0.0000000000	0.0000000000	-192.3747731426	1.0000000000	1028.8486599005	1.0000000000	0.0000000000	0.0000000000
0.1400000000	0.0000000000	1.0000000000	0.0000000000	1.0000000000	0.0000000000	0.0000000000	-180.7725282517	1.0000000000	1041.3864200009	1.0000000000	0.0000000000	0.0000000000
0.1500000000	0.0000000000	1.0000000000	0.0000000000	1.0000000000	0.0000000000	0.0000000000	-166.0311670360	1.0000000000	1042.6547829561	1.0000000000	0.0000000000	0.0000000000
0.1600000000	0.0000000000	1.0000000000	0.0000000000	1.0000000000	0.0000000000	0.0000000000	-148.8886534962	1.0000000000	1032.7995809921	1.0000000000	0.0000000000	0.0000000000
0.1700000000	0.0000000000	1.0000000000	0.0000000000	1.0000000000	0.0000000000	0.0000000000	-131.4051469004	1.0000000000	1012.2784223206	1.0000000000	0.0000000000	0.0000000000
0.1800000000	0.0000000000	1.0000000000	0.0000000000	1.0000000000	0.0000000000	0.0000000000	-114.1802948110	1.0000000000	981.4728555177	1.0000000000	0.0000000000	0.0000000000
0.1900000000	0.0000000000	1.0000000000	0.0000000000	1.0000000000	0.0000000000	0.0000000000	-97.4576910390	1.0000000000	941.7506159857	1.0000000000	0.0000000000	0.0000000000
0.2000000000	0.0000000000	1.0000000000	0.0000000000	1.0000000000	0.0000000000	0.0000000000	-82.6795876442	1.0000000000	895.5545465335	1.0000000000	0.0000000000	0.0000000000
0.2100000000	0.0000000000	1.0000000000	0.0000000000	1.0000000000	0.0000000000	0.0000000000	-69.9146709158	1.0000000000	845.6716336876	1.0000000000	0.0000000000	0.0000000000
0.2200000000	0.0000000000	1.0000000000	0.0000000000	1.0000000000	0.0000000000	0.0000000000	-58.4728680986	1.0000000000	795.1835717099	1.0000000000	0.0000000000	0.0000000000
0.2300000000	0.0000000000	1.0000000000	0.0000000000	1.0000000000	0.0000000000	0.0000000000	-48.9802151941	1.0000000000	747.1287604356	1.0000000000	0.0000000000	0.0000000000
0.2400000000	0.0000000000	1.0000000000	0.0000000000	1.0000000000	0.0000000000	0.0000000000	-41.2034157730	1.0000000000	703.8691462996	1.0000000000	0.0000000000	0.0000000000
0.2500000000	0.0000000000	1.0000000000	0.0000000000	1.0000000000	0.0000000000	0.0000000000	-34.2262292647	1.0000000000	666.7168593077	1.0000000000	0.0000000000	0.0000000000
0.2600000000	0.0000000000	1.0000000000	0.0000000000	1.0000000000	0.0000000000	0.0000000000	-28.2201409898	1.0000000000	636.3338450393	1.0000000000	0.0000000000	0.0000000000
0.2700000000	0.0000000000	1.0000000000	0.0000000000	1.0000000000	0.0000000000	0.0000000000	-23.1181076428	1.0000000000	613.2775421775	1.0000000000	0.0000000000	0.0000000000
0.2800000000	0.0000000000	1.0000000000	0.0000000000	1.0000000000	0.0000000000	0.0000000000	-18.2751789914	1.0000000000	597.6189672007	1.0000000000	0.0000000000	0.0000000000
0.2900000000	0.0000000000	1.0000000000	0.0000000000	1.0000000000	0.0000000000	0.0000000000	-13.8052005791	1.0000000000	588.4881296863	1.0000000000	0.0000000000	0.0000000000
0.3000000000	0.0000000000	1.0000000000	0.0000000000	1.0000000000	0.0000000000	0.0000000000	-9.7201079055	1.0000000000	584.8966633030	1.0000000000	0.0000000000	0.0000000000
0.3100000000	0.0000000000	1.0000000000	0.0000000000	1.0000000000	0.0000000000	0.0000000000	-5.4470671182	1.0000000000	586.4495641874	1.0000000000	0.0000000000	0.0000000000
0.3200000000	0.0000000000	1.0000000000	0.0000000000	1.0000000000	0.0000000000	0.0000000000	-1.0028505001	1.0000000000	592.6907706108	1.0000000000	0.0000000000	0.0000000000
0.3300000000	0.0000000000	1.0000000000	0.0000000000	1.0000000000	0.0000000000	0.0000000000	3.6885619795	1.0000000000	602.8831524564	1.0000000000	0.0000000000	0.0000000000
0.3400000000	0.0000000000	1.0000000000	0.0000000000	1.0000000000	0.0000000000	0.0000000000	9.2331325372	1.0000000000	616.5716193184	1.0000000000	0.0000000000	0.0000000000
0.3500000000	0.0000000000	1.0000000000	0.0000000000	1.0000000000	0.0000000000	0.0000000000	15.6887706559	1.0000000000	633.6859925867	1.0000000000	0.0000000000	0.0000000000
0.3600000000	0.0000000000	1.0000000000	0.0000000000	1.0000000000	0.0000000000	0.0000000000	23.0926827092	1.0000000000	654.1721848730	1.0000000000	0.0000000000	0.0000000000
0.3700000000	0.0000000000	1.0000000000	0.0000000000	1.0000000000	0.0000000000	0.0000000000	31.8495336058	1.0000000000	677.9426617829	1.0000000000	0.0000000000	0.0000000000
0.3800000000	0.0000000000	1.0000000000	0.0000000000	1.0000000000	0.0000000000	0.0000000000	41.9522696194	1.0000000000	704.8367965357	1.0000000000	0.0000000000	0.0000000000
0.3900000000	0.0000000000	1.0000000000	0.0000000000	1.0000000000	0.0000000000	0.0000000000	53.2750406861	1.0000000000	734.3153043536	1.0000000000	0.0000000000	0.0000000000
